/* XPM */
static char *result[] = {
/* columns rows colors chars-per-pixel */
"32 32 131 2 ",
"   c #2D353C",
".  c #273C38",
"X  c #2A3E39",
"o  c #1B4638",
"O  c #1F5E38",
"+  c #274438",
"@  c #2E4139",
"#  c #374637",
"$  c #384637",
"%  c #3E4B37",
"&  c #324439",
"*  c #384738",
"=  c #354C3C",
"-  c #3B4B39",
";  c #2A5732",
":  c #385436",
">  c #34523C",
",  c #3C543D",
"<  c #325A3D",
"1  c #156235",
"2  c #1E6537",
"3  c #176B33",
"4  c #1A6E34",
"5  c #147A39",
"6  c #27772A",
"7  c #2B7D2C",
"8  c #32752B",
"9  c #246934",
"0  c #276D3A",
"q  c #316A39",
"w  c #217434",
"e  c #217039",
"r  c #2D7039",
"t  c #317531",
"y  c #424F3A",
"u  c #4C4D3F",
"i  c #45533C",
"p  c #48563E",
"a  c #56743F",
"s  c #394D40",
"d  c #2E5843",
"f  c #3E5541",
"g  c #365C42",
"h  c #3B5D41",
"j  c #2D6740",
"k  c #3E6441",
"l  c #464D40",
"z  c #445440",
"x  c #4B5442",
"c  c #425B41",
"v  c #4D5D46",
"b  c #465748",
"n  c #4C574A",
"m  c #4F5E48",
"M  c #505F47",
"N  c #51544B",
"B  c #535B49",
"V  c #446443",
"C  c #4E6346",
"Z  c #466844",
"A  c #4B6B44",
"S  c #4F6048",
"D  c #516246",
"F  c #516D46",
"G  c #526249",
"H  c #526949",
"J  c #517447",
"K  c #547B46",
"L  c #5A7F42",
"P  c #537348",
"I  c #547948",
"U  c #349E17",
"Y  c #3A991E",
"T  c #3EA218",
"R  c #158C2C",
"E  c #0B942C",
"W  c #089A28",
"Q  c #0F8430",
"!  c #128331",
"~  c #019E36",
"^  c #07923B",
"/  c #0E9039",
"(  c #0C9D3A",
")  c #139035",
"_  c #288624",
"`  c #358423",
"'  c #348822",
"]  c #05AA2D",
"[  c #06B22C",
"{  c #0BB12A",
"}  c #04B82F",
"|  c #11BA2D",
" . c #03A333",
".. c #09A436",
"X. c #04AC35",
"o. c #08AC31",
"O. c #04A53C",
"+. c #00AF39",
"@. c #05B434",
"#. c #02BB32",
"$. c #23AB2E",
"%. c #4E9C14",
"&. c #56BE0B",
"*. c #46B914",
"=. c #448624",
"-. c #26CB1C",
";. c #33C016",
":. c #30CA19",
">. c #31D515",
",. c #3ADC12",
"<. c #00CE2B",
"1. c #02D32A",
"2. c #11D423",
"3. c #1AD720",
"4. c #00C634",
"5. c #48D60D",
"6. c #41D711",
"7. c #63CB03",
"8. c #6ACA02",
"9. c #64D201",
"0. c #55E607",
"q. c #58E705",
"w. c #76E500",
"e. c #7BEC00",
"r. c #578343",
"t. c #5B8145",
"y. c #5E8D45",
"u. c #648746",
"i. c #628B47",
"p. c #609047",
"a. c #649944",
/* pixels */
"i J J J J J J J J - # F J J J J J y.L & y P F * * P J J J J J i ",
"i C C C C C C C S - # i v C C C C A x & - m z - * G F S C C S i ",
"i v v v b v v v S - % c v v v v v v v & % C S % - v v v v v S i ",
"i m v v v v v v m % - x v v v v v v v & y v v * - v v v v v v i ",
"i m m v v S v v M - # x v v v v v v p - , v M * # m v v v v v , ",
"i C v v v v v v c % * v m v v v v v v - y D v $ - i v C v v x i ",
"i v v v m m v v C - # M v v m v v S v & % v M $ # C v v v v S i ",
"i z m v m C m C x % - z m C C C m x i & , y p % - m v v v v S i ",
"@ - # # # # # # # . . # # # # # # # * & . * - & - v m m m v m i ",
"@ f V V V V V V V V V V & # r.A V V V V V V V f # p C C m v x i ",
"@ a a.J I J J J J J r.F & - F K A P F F F P A P f # # # # # - @ ",
"& x A C C C C C C S F v # % M x v v x v v v v v M z @ - Z Z c @ ",
"& x x v v v v v v v v v & - S v v v v v v v S v v v & y S v v @ ",
"@ i v C C v v v v v v v & - v v v v m v v v v v v i & % v v i @ ",
"& v v v v v v v v v v v y y C S v v v v v v v v v v & y v v p & ",
"@ x v v v v v v v v v v y y p v v m v v v v v v v v & , S v v & ",
"@ x v v v v v m v v C i % % m v v v v v m v v v v v # y m M p & ",
"@ b m C m v v v v v m v & - m v v m v v v v v v v v # , C z i & ",
"& v v v v v v v v m v v # , v m m C v v C m m m v i & i i - - X ",
"@ p m v v v v v v v v v & % i i i i i i i i i i i i & & i @ i , ",
"& i v v v v v v v v v v # @ > = s = = = s > & @ = = = , & @ p i ",
"& v v v v v C v v v v v # , p.I I I I J I J i @ F I I P A @ p i ",
"@ p C v v v v v v v v v & % v v v v v v b v i @ x F A t.i @ p i ",
"& x v v v m v v v v v C & % x m C m v m C v y & x v v v x & c i ",
"& p C m m m v v v M v x # # - * * # # * # $ * & v v v v x @ p i ",
"@ : i i i i i z p z y % = Z h @ , Z V V V A : & x v v v x + p i ",
"& s s s s s s o o s > , i.u.x @ i H F L D v y y v v v v i % p i ",
"i F A e 0 0 0 9.7.j G H k O 2 @ i x v x v v y y x n v m x & c i ",
"y n 7 w.0.q.T ' 3.9.d , 5.0.e._ l M B b g h i @ ` U t n < X p i ",
"u M N t 5.4.3.%.[ >.=.&.<.6.8   l B b Y 7.;.4 8 ,.,.w.8 9.6 u i ",
"Q q R x ! @.X.] ] O.E X. .#.; w W r 8 8.{ 2.1.5 +. .1 #.-.8 : > ",
"@./  .( 1.@./ R ..( o.o.X.#.[ ( #.X.9  .) $.( #.( } ~ | :.3 ^ *."
};
