/* XPM */
static char *result[] = {
/* columns rows colors chars-per-pixel */
"32 32 97 2 ",
"   c #39BB1F",
".  c #118E3F",
"X  c #06953F",
"o  c #0D943D",
"O  c #049C3D",
"+  c #0C9B3B",
"@  c #1A9C36",
"#  c #10913E",
"$  c #189739",
"%  c #159A39",
"&  c #239E33",
"*  c #02BE2F",
"=  c #0AB82F",
"-  c #1EBF26",
";  c #1CB52B",
":  c #1ABA2A",
">  c #09A637",
",  c #05AD35",
"<  c #08A936",
"1  c #04A33A",
"2  c #0AA239",
"3  c #02A939",
"4  c #16A633",
"5  c #1FA232",
"6  c #15AB32",
"7  c #05B333",
"8  c #01BB31",
"9  c #25A62F",
"0  c #2AA42E",
"q  c #24AB2D",
"w  c #2AAB2A",
"e  c #34AD27",
"r  c #39AE25",
"t  c #32AB28",
"y  c #26BC25",
"u  c #31B325",
"i  c #38B124",
"p  c #25A130",
"a  c #45B51D",
"s  c #45BC1B",
"d  c #4BBD18",
"f  c #14D71E",
"g  c #1ED31D",
"h  c #3DDC0F",
"j  c #29D817",
"k  c #28D31A",
"l  c #24DA18",
"z  c #32D614",
"x  c #3CD414",
"c  c #36D912",
"v  c #03CF27",
"b  c #01C32E",
"n  c #0AC22B",
"m  c #00CC2B",
"M  c #1CC424",
"N  c #13CD24",
"B  c #19CC21",
"V  c #03D326",
"C  c #0FD322",
"Z  c #00D228",
"A  c #11D221",
"S  c #00C231",
"D  c #00CA32",
"F  c #23C522",
"G  c #5DCB0D",
"H  c #44D70F",
"J  c #42DC0D",
"K  c #49DD0B",
"L  c #51D20D",
"P  c #5DD10A",
"I  c #45C616",
"U  c #4DC016",
"Y  c #44CD13",
"T  c #4ACF11",
"R  c #50C314",
"E  c #46D111",
"W  c #4AD110",
"Q  c #6BCE06",
"!  c #62CD0A",
"~  c #68CD08",
"^  c #67D206",
"/  c #6AD006",
"(  c #74DA00",
")  c #5DE203",
"_  c #64E600",
"`  c #6FE700",
"'  c #71E600",
"]  c #7FE300",
"[  c #7EEA00",
"{  c #048D43",
"}  c #0A8E41",
"|  c #059241",
" . c #099240",
".. c #82E600",
"X. c #88E600",
"o. c #84EC00",
"O. c #92ED00",
/* pixels */
"o o m > o > 2 o o # V , + * # o < + 7 o 2 m # 7 2 > > | U u | 9 ",
"2 2 o o b V + 7 7 o 7 V + * b 2 = > # , X +  .{ o o X a J w 0 x ",
"2 m b o 8 + # 7 { o + 2 2 b . o > > 2 V  .s [ ) 1 + O Y N 0 m S ",
"# 2 V > 8 8 3 a ^ 0 3 8 . . b + 7 V < + * 3   C + o < , m 1 O 8 ",
"2 o $ $ 8 O d A d } < o m , O O o , , * = .  .{ |  .> > 3 p e e ",
"8 o u ( a { F 8 } } 8 3 + | ^ G X o o 2 > * w G G ~ {  .p x J U ",
"2 + 0 N M w O + < m % r 9  .8 _ { 5 r 4 + 2 { s N D P % H S I { ",
"m , , 8 3 < + S + X r K F } O q 5 X.g V , o b O y 3 V 6 | 8 O X ",
"o # 7 o % o 2 + 7 < 0 M { 8 + 2 2 { 0 y , # 2 + + 2 2 2 $ r w w ",
". < , # # , 8 + Z 2 , { I 1 2 2 b . 8 8 + b } 3 8 2 # 7 n g O.U ",
"m % , , b } m 8 # 8 7 { ' l X < . * m + 2 O x N 8 < o + 3 E { 1 ",
"+ # b 2 2 {  .+ < V # X t r > V , + + o X s [ ^ S > + < 3 | | O ",
"< + , o 9 ] T % + > X } m 3 # , < * m * # X {  .# 2 < + p ..[ ; ",
", + * + { ! g e 3 7 & ^ | o # 7 , 2 + } { , , 7 7 2 8 , 3 & : 7 ",
"# # 7 < b } S H } O h W } m , . 7 # o H ' v 8 # 7 } # 7 + m  .o ",
"> b . { O o 8 7 + m n % o + + b + O ( _ 0 4 2 o 9 Q 3 , < |  .+ ",
"+ 3 p X.Y $ o o b 2 * o 2 Z 2 + , <  .{ Z + + + q f < , 1 h Q  .",
"2 m  .5 h n m < o | O  .# + o o + + + # + # m > o 3 . 7 o S M X ",
"o + 3  .8 + o 2 8 c O.R O m o b m 2 + , V , 7 2 b # 3 % o # o 2 ",
"# * | d 7 2 + 2 F ; w r 8 2 > Z + # V + , Z + m + } h S + * . * ",
"< X   j 8 + < + 3 + 3 X m Z o 2 < + o 2 2 . 2 * + 1 Q - + m * + ",
"* } o.  1 o 8 > * # = < o > > V < + o b 2 # + o + b { o + + + * ",
"} b 3 { m < o > + b . o 7 < o }  . .+ > < m + % o + m b # b 7 . ",
"7 + p ! s X + m % , * + m 2 , d G ! 3 7  .| X , . * b o % 2 # , ",
"# o i j 3  .i e o o b m . 8 7 { W z & @ ) ..p 8 * + > + < > > m ",
"< + $ 4 8 O j '  .+ + > 3 Z } X e j : Q D ; q + + * b + 7 V < 2 ",
"7 7 S { , # O x X o o + @ t t 6 1 O 3 3 O 2 } 7 b . o < # < < * ",
"2 # 2 d d  .o  .+ 7 3  .% ( ` = #  .M ~ s } S + 2 X X b # 7 < + ",
"8 > #  ., + b o + } J h O O O o + 3 o } 3 f Q | % L Q 3 o } K m ",
"o % 2 b < 8 7 , o # 7 7 2 b 2 o w f , o + q @  .6 V - } b 2 O + ",
"+ % # , m 2 < b + < # o o + 2 + 9 / 3 o + 5 o.u p < , o 7 % < + ",
"7 o + # < o Z 2 < 7 + o 2 m b + X  .8 > X q u k B + * 2 o o 7 > "
};
