/* XPM */
static char *_bea5a776ecc4f3bbc7e4d892e1a5df25UraYbaVqvtUcBPM[] = {
/* columns rows colors chars-per-pixel */
"32 32 193 2 ",
"   c #AD7F00",
".  c #39BB1F",
"X  c #37BB1F",
"o  c #118E3F",
"O  c #0E943D",
"+  c #049C3D",
"@  c #0C9B3B",
"#  c #1A9C36",
"$  c #10913E",
"%  c #149A3A",
"&  c #1D9839",
"*  c #2C9C3A",
"=  c #2B9935",
"-  c #02BE2F",
";  c #0AB82F",
":  c #1CB929",
">  c #09A637",
",  c #05AD35",
"<  c #08AA36",
"1  c #04A23A",
"2  c #0AA239",
"3  c #02AA39",
"4  c #1FA133",
"5  c #17A932",
"6  c #05B333",
"7  c #02BB31",
"8  c #25A62E",
"9  c #2AA52E",
"0  c #2AAB2A",
"q  c #25AB2C",
"w  c #32AE27",
"e  c #31AB29",
"r  c #33A42E",
"t  c #2EB728",
"y  c #23B82A",
"u  c #31B325",
"i  c #38B124",
"p  c #26A231",
"a  c #36AB3D",
"s  c #3CA130",
"d  c #68981F",
"f  c #699A1E",
"g  c #45B51D",
"h  c #45BB1B",
"j  c #4BBD18",
"k  c #7AAE1F",
"l  c #7EBE1E",
"z  c #579F27",
"x  c #5B9C27",
"c  c #5A922B",
"v  c #699421",
"b  c #759E2E",
"n  c #5FB831",
"m  c #73A32C",
"M  c #6EB029",
"N  c #77B526",
"B  c #16D61E",
"V  c #3EDB0F",
"C  c #27D719",
"Z  c #3CD414",
"A  c #01C32E",
"S  c #0BC32A",
"D  c #00CB2B",
"F  c #1DC424",
"G  c #15CC23",
"H  c #04D226",
"J  c #00D228",
"K  c #0FD322",
"L  c #11D421",
"P  c #00C231",
"I  c #22C427",
"U  c #30C73C",
"Y  c #5EC90D",
"T  c #42DC0D",
"R  c #49DA0C",
"E  c #5DD10A",
"W  c #51D20D",
"Q  c #4DC016",
"!  c #43CD14",
"~  c #44C318",
"^  c #46D111",
"/  c #6ACF07",
"(  c #62CD0A",
")  c #68CD08",
"_  c #6AD006",
"`  c #62D108",
"'  c #73D900",
"]  c #79CA17",
"[  c #5DE202",
"{  c #6FE700",
"}  c #7EEA00",
"|  c #7FE300",
" . c #048D44",
".. c #0A8D42",
"X. c #059241",
"o. c #099241",
"O. c #369E43",
"+. c #2FA940",
"@. c #3CAA41",
"#. c #9B8C0B",
"$. c #99870C",
"%. c #8D9C12",
"&. c #949316",
"*. c #AF8101",
"=. c #A28D06",
"-. c #AA8B09",
";. c #A8890A",
":. c #B28300",
">. c #B78800",
",. c #BB8C00",
"<. c #B3860A",
"1. c #B68808",
"2. c #BB8D09",
"3. c #AE9D0C",
"4. c #BF9100",
"5. c #BF920A",
"6. c #B69709",
"7. c #A68F16",
"8. c #A99413",
"9. c #A79413",
"0. c #84BB0F",
"q. c #92B40A",
"w. c #A3A109",
"e. c #A6AB15",
"r. c #A5B01A",
"t. c #BAA80B",
"y. c #9B9D23",
"u. c #86A92F",
"i. c #97A620",
"p. c #80BA20",
"a. c #C39400",
"s. c #C69801",
"d. c #CA9B01",
"f. c #C19D08",
"g. c #CEA300",
"h. c #C7AC08",
"j. c #D4A400",
"k. c #D4AC00",
"l. c #DBAB00",
"z. c #DBB200",
"x. c #DCBE02",
"c. c #D4B000",
"v. c #CDA31E",
"b. c #D2A61D",
"n. c #CBB412",
"m. c #E3B300",
"M. c #E8B700",
"N. c #E4BB00",
"B. c #EBBC00",
"V. c #C69D23",
"C. c #A8C115",
"Z. c #BBC114",
"A. c #82E600",
"S. c #85ED00",
"D. c #93EE00",
"F. c #9CC327",
"G. c #BEC92A",
"H. c #D2CC07",
"J. c #D2D008",
"K. c #CCC319",
"L. c #DFD915",
"P. c #E6C000",
"I. c #EBC500",
"U. c #E6CC02",
"Y. c #EBCC00",
"T. c #EBCD0B",
"R. c #F6C500",
"E. c #F7C800",
"W. c #FACB00",
"Q. c #EBD101",
"!. c #EFDB00",
"~. c #F5D500",
"^. c #FBD400",
"/. c #F4DA00",
"(. c #FBDC05",
"). c #E5CD1C",
"_. c #EED61C",
"`. c #F0E000",
"'. c #FEE809",
"]. c #FBF204",
"[. c #F9E514",
"{. c #EDD82A",
"}. c #F1DF28",
"|. c #F9D220",
" X c #EDD935",
".X c #EDD733",
"XX c #CFE12D",
"oX c #FAE027",
"OX c #ECD944",
"+X c #E5DE54",
"@X c #D7E54F",
"#X c #FEF444",
"$X c #FAF257",
/* pixels */
"O O A < @ 2 2 O o.% J , 2 7 $ % > @ 6 ..2 D ..6 2 2 > X.Q w X.p ",
"2 2 O @ A J @ 6 ; o., H @ ; A 2 6 < $ 6 @ X.X.o.O % X.g T t p Z ",
"2 D A O 7 @ $ 6 o.o.o.2 2 S ..o.> > 2 H o.~ } [ + @ o.! L 9 D P ",
"$ @ H > 7 7 3 g ` 0 , ; ....S 2 6 J , % P 1 h L 1 O < 6 D 1 + 7 ",
"1 O & % 7 + j L j o.< o.D , + + $ , , - 7 o X.X.X.X.> 2 3 p w e ",
"- O w ' g  .I 7 ..o.7 3 @ X.) E X.O o.1 2 - 8 ` Y )  .O p Z T Q ",
"2 @ 9 G F 0 + @ < D # M N G.oX(.(.|.K.N a 2 ..h K P E % T P ~ X.",
"A , , - 1 < 2 A o.p F.XX@X+X XQ.Q.T.T.J.Z.u.I o.y 3 H 5 X.7 + O ",
"O $ 6 O & $ 2 2 t p._._..XOX XQ.U.U.B.N.m.n.N r 2 2 @ 1 & i 0 e ",
"$ < 6 $ ..6 7 * ] H.`.T.)..X}.!.Q.I.N.l.l.l.h.k y 2 O 6 S B D.j ",
"D @ < 6 P ..P N K.Q.H.{.$X#X[.~.B.E.W.W.M.a.j.n.N < O @ 6 ^  .+ ",
"@ $ A @ 2  .O.e.l.N.~.].'.(.~./.B.R.W.W.R.l.s.d.e.@.2 < 3 X. .1 ",
"< @ , O 8 | 0.t.j.c.`././.~./.^.B.B.I.B.M.m.a.a.3.x < @ p | } : ",
"< @ - @  .( r.f.g.x.`.~.~.~.^.^.B.M.B.M.m.l.s.a.6.i.- < 3 = : 6 ",
"% $ 6 < A  .b.a.g.Q.Q.~.^.E.E.E.M.M.m.l.l.j.j.a.2.v.O , @ D ..O ",
"2 A o  .+ O d.:.g.Q.E.I.B.N.M.M.m.l.l.d.d.M.m.a.:.d.3 < < +  .@ ",
"@ 3 p A.! % d.:.s.M.B.B.B.N.m.m.m.j.d.j.M.M.l.a.  s.< , 2 V ) X.",
"2 D o.4 V S v.1.4.l.B.B.P.I.B.l.l.j.d.d.m.m.d.,.<.v...; % P I o.",
"$ 2 < ..7 @ y.-.>.s.l.M.Y.I.m.j.s.d.s.s.l.l.a.>.-.y.1 o.O o O > ",
"$ 7 X.h 7 2 x #.:.,.j.z.Y.P.k.d.s.a.a.a.j.d.>.>.#.c T P @ A o 7 ",
"< O . C A O a &.:.:.a.c.z.k.g.l.l.j.a.,.a.a.  >.&.a / : @ D - @ ",
"-  .S.. + @ ; m 8.:.*.,.d.d.d.g.d.d.d.a.>.    8.b A ..O @ @ @ - ",
"O A 3  .A < @ p f =.*.*.>.,.a.d.d.a.a.>.    -.d = @ D A $ A 6 o ",
"6 + p ) h + @ D = f 9.*.:.:.>.>.>.>.:.    7.v 0 o 7 A O % 2 $ , ",
"$ O i C 3 o.i e O = M %.$.;.<.*.  <.;.#.w.C.s 7 - @ 2 @ < 2 2 J ",
"1 @ & 5 7 + C { X.@ O @.z i.V.5.f.V.y.q.U : 9 @ @ - A @ 7 J < 2 ",
"7 , A ..6 O + ! O O O @ 2 e w 5 + @ 3 3 + > O , A o @ 2 O < < - ",
"@ $ 1 Q h O $ X.$ 7 3 X.% ' { ; O ..F / h  .7 2 2 o.X.D $ 6 < @ ",
"- 2 $ o., @ A O O ..T V + + + O @ 3 O  .3 B / X.# W ) , O ..R A ",
"$ @ 2 A < 7 7 , O % 6 6 2 7 2 O 0 B , O + q # X.5 J : ..- 2 + 2 ",
"@ @ $ < H 2 2 A O , O O O @ < @ 8 _ 3 O O 4 } . 8 3 < O 6 $ < @ ",
"6 $ @ O 2 O J 2 < 7 O O 2 D A @ O ..A 2 O 8 u C G @ - 2 % $ 7 < "
};
