/* XPM */
static char *result[] = {
/* columns rows colors chars-per-pixel */
"32 32 42 1 ",
"  c #1A1E1C",
". c #1B221E",
"X c #1C1F21",
"o c #1E2322",
"O c #1F2923",
"+ c #212525",
"@ c #232926",
"# c #24272A",
"$ c #262A2A",
"% c #292D2C",
"& c #273129",
"* c #2B322D",
"= c #2C2E31",
"- c #2E3332",
"; c #313534",
": c #333A35",
"> c #353639",
", c #363B3A",
"< c #393D3C",
"1 c #364036",
"2 c #374138",
"3 c #3B423D",
"4 c #3F483E",
"5 c #40473F",
"6 c #3C3F40",
"7 c #3E4341",
"8 c #3F4841",
"9 c #414544",
"0 c #444945",
"q c #484E47",
"w c #444649",
"e c #464949",
"r c #494C4B",
"t c #475145",
"y c #4D524B",
"u c #50544E",
"i c #4E4E52",
"p c #4F5151",
"a c #535553",
"s c #555953",
"d c #5A5A59",
"f c #62625D",
/* pixels */
"-o23<30%=re;392oo&*8oe9$<9;%5ru;",
"0#$$%o.@ep-=q3>o3+o*:@w%#%7$9w53",
"-X<>e52$<<o3$3@@92u*47o>####9iid",
"X=ir<0uo0.$y74o$7492<e+ye<9=++$#",
" ;999q.:o*o-:*@3997,:7&qqu90Xr%X",
"9+<39@29$e-;p,-8459:-<*0er<:+did",
"e-;3*:3+*3@:79%**o.;:o.t07>#>wiw",
"q$*.+@.y%2.*2<@e.+2991,.+;-99>99",
"0*.667o--O*-,+09OO23423*3;e7<*q7",
"5$;9-6=p6r@33:02.&17:22&.2970%90",
";;;99-%6>7;o%:7:o228023..4qq,o++",
"<u+re%,>ee@87-%=o<30y*o&+:r3+2@2",
"25-:*+;$-o>ww<7O*oOo+.t33=+-+%.3",
"32,:%47-,,awi7@773r@o7e:%>==92@.",
".;;+89e7+a->p>=7438@77w=9>+699@ ",
":3:@007%y7wro>e<277o,ewr6+=#we<@",
"03-=6q:;4999+e+383o:7@76+#asr<0@",
"%%+@;,o%0r<@ p;+-*w070%+6#9epw,.",
"se=w>$q:*<+59<;>,+p,w7o,=%9i7q-%",
"9r<;@.7<@ #99;99e;,9e>d7-=>7f%oe",
"rio=w7+,o-+9X-e;$-@9a-yr<*<0d7--",
";%#iew;@ee7@o;y.33$7@-0e3y4997oX",
";56979#,r7w7%@+%+*;<o-7:o %..a7o",
"%-,9a@$7wi7<r+3<0,:<,7;;9999,,*9",
"99%o-><,wrwiw#>i<o;7,0;0r94:,X,9",
">,9@r>+@====#=>#sesO-@:30e99$,-9",
",,++;ey;6w9#66<#9eey+.1&940-#9.;",
"9+e=>+@==w>f>r%-20yt3.2239e$%+-;",
"X*5.%rreXrw9>w@:3o<3o@.-;@@@9rr;",
"%;*@<57e$s+#$%>o=wr7,+1*.33@000e",
"+=+:<<7;+#a9%9ro7ee73o&-4.2&:8@d",
" =@&<599X69r#@O.-2773%<,r8@.@%-="
};
